mtllib hill.mtl
o Plane
v -2.0000 0.0000 2.0000
v 2.0000 0.0000 2.0000
v -2.0000 0.0000 -2.0000
v 2.0000 0.0000 -2.0000
v -2.0000 0.0000 0.0000
v 0.0000 0.0000 2.0000
v 2.0000 0.0000 0.0000
v 0.0000 0.0000 -2.0000
v 0.0000 1.0376 0.0000
v -2.0000 0.0000 1.0000
v 1.0000 0.0000 2.0000
v 2.0000 0.0000 -1.0000
v -1.0000 0.0000 -2.0000
v -2.0000 0.0000 -1.0000
v -1.0000 0.0000 2.0000
v 2.0000 0.0000 1.0000
v 1.0000 0.0000 -2.0000
v 0.0000 0.1043 -1.0000
v 0.0000 0.1043 1.0000
v -1.0000 0.1043 0.0000
v 1.0000 0.1043 0.0000
v 1.0000 0.0000 1.0000
v -1.0000 0.0000 1.0000
v -1.0000 0.0000 -1.0000
v 1.0000 0.0000 -1.0000
v -2.0000 0.0000 1.5000
v 1.5000 0.0000 2.0000
v 2.0000 0.0000 -1.5000
v -1.5000 0.0000 -2.0000
v -2.0000 0.0000 -0.5000
v -0.5000 0.0000 2.0000
v 2.0000 0.0000 0.5000
v 0.5000 0.0000 -2.0000
v 0.0000 0.0000 -1.5000
v 0.0000 0.6696 0.5000
v -1.5000 0.0000 0.0000
v 0.5000 0.6696 0.0000
v -2.0000 0.0000 0.5000
v 0.5000 0.0000 2.0000
v 2.0000 0.0000 -0.5000
v -0.5000 0.0000 -2.0000
v -2.0000 0.0000 -1.5000
v -1.5000 0.0000 2.0000
v 2.0000 0.0000 1.5000
v 1.5000 0.0000 -2.0000
v 0.0000 0.6696 -0.5000
v 0.0000 0.0000 1.5000
v -0.5000 0.6696 0.0000
v 1.5000 0.0000 0.0000
v 1.0000 0.0299 0.5000
v 1.0000 0.0000 1.5000
v 0.5000 0.0299 1.0000
v 1.5000 0.0000 1.0000
v -1.0000 0.0299 0.5000
v -1.0000 0.0000 1.5000
v -1.5000 0.0000 1.0000
v -0.5000 0.0299 1.0000
v -1.0000 0.0000 -1.5000
v -1.0000 0.0299 -0.5000
v -1.5000 0.0000 -1.0000
v -0.5000 0.0299 -1.0000
v 1.0000 0.0000 -1.5000
v 1.0000 0.0299 -0.5000
v 0.5000 0.0299 -1.0000
v 1.5000 0.0000 -1.0000
v 1.5000 0.0000 -0.5000
v 0.5000 0.4132 -0.5000
v 0.5000 0.0000 -1.5000
v -0.5000 0.4132 -0.5000
v -1.5000 0.0000 -0.5000
v -1.5000 0.0000 -1.5000
v -0.5000 0.0000 1.5000
v -1.5000 0.0000 1.5000
v -1.5000 0.0000 0.5000
v 1.5000 0.0000 1.5000
v 0.5000 0.0000 1.5000
v 0.5000 0.4132 0.5000
v 1.5000 0.0000 0.5000
v -0.5000 0.4132 0.5000
v -0.5000 0.0000 -1.5000
v 1.5000 0.0000 -1.5000
v -2.0000 0.0000 1.7500
v 1.7500 0.0000 2.0000
v 2.0000 0.0000 -1.7500
v -1.7500 0.0000 -2.0000
v -2.0000 0.0000 -0.2500
v -0.2500 0.0000 2.0000
v 2.0000 0.0000 0.2500
v 0.2500 0.0000 -2.0000
v 0.0000 0.0000 -1.7500
v 0.0000 0.9288 0.2500
v -1.7500 0.0000 0.0000
v 0.2500 0.9288 0.0000
v -2.0000 0.0000 0.7500
v 0.7500 0.0000 2.0000
v 2.0000 0.0000 -0.7500
v -0.7500 0.0000 -2.0000
v -2.0000 0.0000 -1.2500
v -1.2500 0.0000 2.0000
v 2.0000 0.0000 1.2500
v 1.2500 0.0000 -2.0000
v 0.0000 0.3611 -0.7500
v 0.0000 0.0000 1.2500
v -0.7500 0.3611 0.0000
v 1.2500 0.0000 0.0000
v 1.0000 0.0812 0.2500
v 1.0000 0.0000 1.2500
v 0.2500 0.0812 1.0000
v 1.2500 0.0000 1.0000
v -1.0000 0.0812 0.2500
v -1.0000 0.0000 1.2500
v -1.7500 0.0000 1.0000
v -0.7500 0.0000 1.0000
v -1.0000 0.0000 -1.7500
v -1.0000 0.0000 -0.7500
v -1.7500 0.0000 -1.0000
v -0.7500 0.0000 -1.0000
v 1.0000 0.0000 -1.7500
v 1.0000 0.0000 -0.7500
v 0.2500 0.0812 -1.0000
v 1.2500 0.0000 -1.0000
v -2.0000 0.0000 1.2500
v 1.2500 0.0000 2.0000
v 2.0000 0.0000 -1.2500
v -1.2500 0.0000 -2.0000
v -2.0000 0.0000 -0.7500
v -0.7500 0.0000 2.0000
v 2.0000 0.0000 0.7500
v 0.7500 0.0000 -2.0000
v 0.0000 0.0000 -1.2500
v 0.0000 0.3611 0.7500
v -1.2500 0.0000 0.0000
v 0.7500 0.3611 0.0000
v -2.0000 0.0000 0.2500
v 0.2500 0.0000 2.0000
v 2.0000 0.0000 -0.2500
v -0.2500 0.0000 -2.0000
v -2.0000 0.0000 -1.7500
v -1.7500 0.0000 2.0000
v 2.0000 0.0000 1.7500
v 1.7500 0.0000 -2.0000
v 0.0000 0.9288 -0.2500
v 0.0000 0.0000 1.7500
v -0.2500 0.9288 0.0000
v 1.7500 0.0000 0.0000
v 1.0000 0.0000 0.7500
v 1.0000 0.0000 1.7500
v 0.7500 0.0000 1.0000
v 1.7500 0.0000 1.0000
v -1.0000 0.0000 0.7500
v -1.0000 0.0000 1.7500
v -1.2500 0.0000 1.0000
v -0.2500 0.0812 1.0000
v -1.0000 0.0000 -1.2500
v -1.0000 0.0812 -0.2500
v -1.2500 0.0000 -1.0000
v -0.2500 0.0812 -1.0000
v 1.0000 0.0000 -1.2500
v 1.0000 0.0812 -0.2500
v 0.7500 0.0000 -1.0000
v 1.7500 0.0000 -1.0000
v 1.5000 0.0000 -0.7500
v 1.5000 0.0000 -0.2500
v 1.2500 0.0000 -0.5000
v 1.7500 0.0000 -0.5000
v 0.5000 0.1930 -0.7500
v 0.5000 0.5975 -0.2500
v 0.2500 0.5975 -0.5000
v 0.7500 0.1930 -0.5000
v 0.5000 0.0000 -1.7500
v 0.5000 0.0000 -1.2500
v 0.2500 0.0000 -1.5000
v 0.7500 0.0000 -1.5000
v -0.5000 0.1930 -0.7500
v -0.5000 0.5975 -0.2500
v -0.7500 0.1930 -0.5000
v -0.2500 0.5975 -0.5000
v -1.5000 0.0000 -0.7500
v -1.5000 0.0000 -0.2500
v -1.7500 0.0000 -0.5000
v -1.2500 0.0000 -0.5000
v -1.5000 0.0000 -1.7500
v -1.5000 0.0000 -1.2500
v -1.7500 0.0000 -1.5000
v -1.2500 0.0000 -1.5000
v -0.5000 0.0000 1.2500
v -0.5000 0.0000 1.7500
v -0.7500 0.0000 1.5000
v -0.2500 0.0000 1.5000
v -1.5000 0.0000 1.2500
v -1.5000 0.0000 1.7500
v -1.7500 0.0000 1.5000
v -1.2500 0.0000 1.5000
v -1.5000 0.0000 0.2500
v -1.5000 0.0000 0.7500
v -1.7500 0.0000 0.5000
v -1.2500 0.0000 0.5000
v 1.5000 0.0000 1.2500
v 1.5000 0.0000 1.7500
v 1.2500 0.0000 1.5000
v 1.7500 0.0000 1.5000
v 0.5000 0.0000 1.2500
v 0.5000 0.0000 1.7500
v 0.2500 0.0000 1.5000
v 0.7500 0.0000 1.5000
v 0.5000 0.5975 0.2500
v 0.5000 0.1930 0.7500
v 0.2500 0.5975 0.5000
v 0.7500 0.1930 0.5000
v 1.5000 0.0000 0.2500
v 1.5000 0.0000 0.7500
v 1.2500 0.0000 0.5000
v 1.7500 0.0000 0.5000
v -0.5000 0.5975 0.2500
v -0.5000 0.1930 0.7500
v -0.7500 0.1930 0.5000
v -0.2500 0.5975 0.5000
v -0.5000 0.0000 -1.7500
v -0.5000 0.0000 -1.2500
v -0.7500 0.0000 -1.5000
v -0.2500 0.0000 -1.5000
v 1.5000 0.0000 -1.7500
v 1.5000 0.0000 -1.2500
v 1.2500 0.0000 -1.5000
v 1.7500 0.0000 -1.5000
v 1.7500 0.0000 -1.2500
v 1.2500 0.0000 -1.2500
v 1.2500 0.0000 -1.7500
v -0.2500 0.0000 -1.2500
v -0.7500 0.0000 -1.2500
v -0.7500 0.0000 -1.7500
v -0.2500 0.3133 0.7500
v -0.7500 0.0611 0.7500
v -0.7500 0.3133 0.2500
v 1.7500 0.0000 0.7500
v 1.2500 0.0000 0.7500
v 1.2500 0.0000 0.2500
v 0.7500 0.0611 0.7500
v 0.2500 0.3133 0.7500
v 0.2500 0.8339 0.2500
v 0.7500 0.0000 1.7500
v 0.2500 0.0000 1.7500
v 0.2500 0.0000 1.2500
v 1.7500 0.0000 1.7500
v 1.2500 0.0000 1.7500
v 1.2500 0.0000 1.2500
v -1.2500 0.0000 0.7500
v -1.7500 0.0000 0.7500
v -1.7500 0.0000 0.2500
v -1.2500 0.0000 1.7500
v -1.7500 0.0000 1.7500
v -1.7500 0.0000 1.2500
v -0.2500 0.0000 1.7500
v -0.7500 0.0000 1.7500
v -0.7500 0.0000 1.2500
v -1.2500 0.0000 -1.2500
v -1.7500 0.0000 -1.2500
v -1.7500 0.0000 -1.7500
v -1.2500 0.0000 -0.2500
v -1.7500 0.0000 -0.2500
v -1.7500 0.0000 -0.7500
v -0.2500 0.8339 -0.2500
v -0.7500 0.3133 -0.2500
v -0.7500 0.0611 -0.7500
v 0.7500 0.0000 -1.2500
v 0.2500 0.0000 -1.2500
v 0.2500 0.0000 -1.7500
v 0.7500 0.3133 -0.2500
v 0.2500 0.8339 -0.2500
v 0.2500 0.3133 -0.7500
v 1.7500 0.0000 -0.2500
v 1.2500 0.0000 -0.2500
v 1.2500 0.0000 -0.7500
v 1.7500 0.0000 -0.7500
v 0.7500 0.0611 -0.7500
v 0.7500 0.0000 -1.7500
v -0.2500 0.3133 -0.7500
v -1.2500 0.0000 -0.7500
v -1.2500 0.0000 -1.7500
v -0.2500 0.0000 1.2500
v -1.2500 0.0000 1.2500
v -1.2500 0.0000 0.2500
v 1.7500 0.0000 1.2500
v 0.7500 0.0000 1.2500
v 0.7500 0.3133 0.2500
v 1.7500 0.0000 0.2500
v -0.2500 0.8339 0.2500
v -0.2500 0.0000 -1.7500
v 1.7500 0.0000 -1.7500
vn -0.0000 1.0000 -0.0000
vn -0.3344 0.8811 0.3344
vn 0.7103 0.6913 0.1323
vn -0.3088 0.9511 -0.0000
vn -0.0000 0.9511 0.3088
vn -0.0676 0.7312 -0.6788
vn 0.2310 0.9451 -0.2310
vn 0.3326 0.6911 -0.6417
vn 0.5663 0.5988 -0.5663
vn 0.6417 0.6911 -0.3326
vn -0.1153 0.9649 -0.2359
vn -0.6217 0.7058 -0.3396
vn -0.2052 0.7111 -0.6725
vn -0.1186 0.9929 -0.0000
vn 0.1915 0.9335 0.3031
vn 0.6960 0.6713 0.2548
vn 0.4378 0.5938 0.6751
vn 0.4998 0.7661 0.4040
vn -0.7449 0.6552 0.1254
vn -0.4227 0.8016 0.4227
vn -0.1254 0.6552 0.7449
vn -0.0000 0.9929 -0.1186
vn -0.0000 0.9511 -0.3088
vn -0.3396 0.7058 0.6217
vn -0.1693 0.8254 0.5385
vn -0.0676 0.7312 0.6788
vn -0.2359 0.9649 0.1153
vn -0.1153 0.9649 0.2359
vn -0.6788 0.7312 0.0676
vn -0.5385 0.8254 0.1693
vn -0.6217 0.7058 0.3396
vn 0.1178 0.9860 0.1178
vn 0.3835 0.9196 0.0850
vn 0.3031 0.9335 0.1915
vn 0.5514 0.6260 0.5514
vn 0.4040 0.7661 0.4998
vn 0.2310 0.9451 0.2310
vn 0.1787 0.6194 0.7644
vn 0.1323 0.6913 0.7103
vn 0.3326 0.6911 0.6417
vn 0.3707 0.8516 0.3707
vn 0.2548 0.6713 0.6960
vn 0.5663 0.5988 0.5663
vn 0.0850 0.9196 0.3835
vn -0.5103 0.6922 -0.5103
vn -0.6725 0.7111 -0.2052
vn -0.3344 0.8811 -0.3344
vn -0.5385 0.8254 -0.1693
vn -0.6788 0.7312 -0.0676
vn -0.7449 0.6552 -0.1254
vn -0.2359 0.9649 -0.1153
vn -0.4227 0.8016 -0.4227
vn 0.1178 0.9860 -0.1178
vn 0.0850 0.9196 -0.3835
vn 0.1915 0.9335 -0.3031
vn 0.6751 0.5938 -0.4378
vn 0.7644 0.6194 -0.1787
vn 0.7103 0.6913 -0.1323
vn 0.2548 0.6713 -0.6960
vn 0.3707 0.8516 -0.3707
vn 0.6960 0.6713 -0.2548
vn 0.1323 0.6913 -0.7103
vn 0.1787 0.6194 -0.7644
vn 0.4378 0.5938 -0.6751
vn 0.3031 0.9335 -0.1915
vn 0.3835 0.9196 -0.0850
vn 0.4040 0.7661 -0.4998
vn 0.5514 0.6260 -0.5514
vn 0.4998 0.7661 -0.4040
vn -0.1693 0.8254 -0.5385
vn -0.3396 0.7058 -0.6217
vn -0.1254 0.6552 -0.7449
vn -0.0000 0.9929 0.1186
vn 0.7644 0.6194 0.1787
vn 0.6751 0.5938 0.4378
vn 0.6417 0.6911 0.3326
vn -0.6725 0.7111 0.2052
vn -0.5103 0.6922 0.5103
vn -0.2052 0.7111 0.6725
vn -0.3707 0.8516 0.3707
vn 0.6788 0.7312 0.0676
vn -0.3835 0.9196 0.0850
vn -0.0850 0.9196 0.3835
vn -0.1323 0.6913 -0.7103
vn 0.1693 0.8254 -0.5385
vn 0.5103 0.6922 -0.5103
vn 0.5385 0.8254 -0.1693
vn -0.4040 0.7661 -0.4998
vn -0.6751 0.5938 -0.4378
vn -0.2548 0.6713 -0.6960
vn -0.3031 0.9335 -0.1915
vn -0.1178 0.9860 0.1178
vn 0.6725 0.7111 0.2052
vn 0.3396 0.7058 0.6217
vn 0.2359 0.9649 0.1153
vn -0.7644 0.6194 0.1787
vn -0.5514 0.6260 0.5514
vn -0.1787 0.6194 0.7644
vn -0.1915 0.9335 -0.3031
vn -0.0850 0.9196 -0.3835
vn -0.1178 0.9860 -0.1178
vn -0.4378 0.5938 0.6751
vn -0.3326 0.6911 0.6417
vn -0.1323 0.6913 0.7103
vn -0.4998 0.7661 0.4040
vn -0.2310 0.9451 0.2310
vn -0.4040 0.7661 0.4998
vn -0.7103 0.6913 0.1323
vn -0.6417 0.6911 0.3326
vn -0.6751 0.5938 0.4378
vn 0.3088 0.9511 -0.0000
vn 0.1186 0.9929 -0.0000
vn 0.4227 0.8016 0.4227
vn 0.1153 0.9649 0.2359
vn 0.1254 0.6552 0.7449
vn 0.0676 0.7312 0.6788
vn 0.1693 0.8254 0.5385
vn 0.3344 0.8811 0.3344
vn 0.2052 0.7111 0.6725
vn 0.5103 0.6922 0.5103
vn -0.3835 0.9196 -0.0850
vn -0.5663 0.5988 -0.5663
vn -0.6960 0.6713 -0.2548
vn -0.3707 0.8516 -0.3707
vn -0.6417 0.6911 -0.3326
vn -0.7103 0.6913 -0.1323
vn -0.7644 0.6194 -0.1787
vn -0.2310 0.9451 -0.2310
vn -0.4998 0.7661 -0.4040
vn -0.5514 0.6260 -0.5514
vn 0.6217 0.7058 -0.3396
vn 0.7449 0.6552 -0.1254
vn 0.6788 0.7312 -0.0676
vn 0.2052 0.7111 -0.6725
vn 0.3344 0.8811 -0.3344
vn 0.6725 0.7111 -0.2052
vn 0.0676 0.7312 -0.6788
vn 0.1254 0.6552 -0.7449
vn 0.3396 0.7058 -0.6217
vn 0.1153 0.9649 -0.2359
vn 0.4227 0.8016 -0.4227
vn 0.2359 0.9649 -0.1153
vn -0.3326 0.6911 -0.6417
vn -0.4378 0.5938 -0.6751
vn -0.1787 0.6194 -0.7644
vn -0.1915 0.9335 0.3031
vn -0.3031 0.9335 0.1915
vn 0.7449 0.6552 0.1254
vn 0.6217 0.7058 0.3396
vn 0.5385 0.8254 0.1693
vn -0.6960 0.6713 0.2548
vn -0.5663 0.5988 0.5663
vn -0.2548 0.6713 0.6960
s 0
f 84//1 141//1 289//1
f 90//1 137//1 288//1
f 91//2 144//2 287//2
f 88//1 145//1 286//1
f 285//3 21//3 133//3
f 107//1 148//1 284//1
f 100//1 149//1 283//1
f 110//4 132//4 282//4
f 111//1 152//1 281//1
f 103//5 153//5 280//5
f 114//1 125//1 279//1
f 115//1 156//1 278//1
f 277//6 18//6 157//6
f 118//1 129//1 276//1
f 119//7 160//7 275//7
f 96//1 161//1 274//1
f 162//1 121//1 273//1
f 163//1 164//1 272//1
f 136//1 165//1 271//1
f 166//8 120//8 270//8
f 167//9 168//9 269//9
f 159//10 169//10 268//10
f 170//1 89//1 267//1
f 171//1 172//1 266//1
f 158//1 173//1 265//1
f 264//11 61//11 117//11
f 263//12 69//12 176//12
f 262//13 46//13 177//13
f 178//1 116//1 261//1
f 179//1 180//1 260//1
f 259//14 59//14 181//14
f 182//1 85//1 258//1
f 183//1 184//1 257//1
f 154//1 185//1 256//1
f 186//1 113//1 255//1
f 187//1 188//1 254//1
f 143//1 189//1 253//1
f 190//1 112//1 252//1
f 191//1 192//1 251//1
f 151//1 193//1 250//1
f 194//1 92//1 249//1
f 195//1 196//1 248//1
f 150//1 197//1 247//1
f 198//1 109//1 246//1
f 199//1 200//1 245//1
f 140//1 201//1 244//1
f 243//15 52//15 108//15
f 203//1 204//1 242//1
f 147//1 205//1 241//1
f 240//16 37//16 93//16
f 239//17 77//17 208//17
f 238//18 50//18 209//18
f 210//1 105//1 237//1
f 211//1 212//1 236//1
f 128//1 213//1 235//1
f 214//19 104//19 234//19
f 215//20 216//20 233//20
f 131//21 217//21 232//21
f 218//1 97//1 231//1
f 219//1 220//1 230//1
f 130//1 221//1 229//1
f 222//1 101//1 228//1
f 223//1 224//1 227//1
f 124//1 225//1 226//1
f 226//1 81//1 223//1
f 161//1 223//1 65//1
f 12//1 226//1 161//1
f 227//1 62//1 158//1
f 121//1 158//1 25//1
f 65//1 227//1 121//1
f 228//1 17//1 118//1
f 224//1 118//1 62//1
f 81//1 228//1 224//1
f 229//1 80//1 219//1
f 61//22 229//22 219//22
f 157//23 130//23 229//23
f 230//1 58//1 154//1
f 117//1 154//1 24//1
f 117//1 219//1 230//1
f 231//1 13//1 114//1
f 220//1 114//1 58//1
f 80//1 231//1 220//1
f 232//24 79//24 215//24
f 153//25 215//25 57//25
f 19//26 232//26 153//26
f 233//27 54//27 150//27
f 113//1 150//1 23//1
f 57//28 233//28 113//28
f 234//29 20//29 110//29
f 216//30 110//30 54//30
f 79//31 234//31 216//31
f 235//1 78//1 211//1
f 149//1 211//1 53//1
f 16//1 235//1 149//1
f 146//32 212//32 50//32
f 109//1 146//1 22//1
f 53//1 236//1 109//1
f 106//33 105//33 21//33
f 50//34 237//34 106//34
f 78//1 237//1 212//1
f 207//35 209//35 77//35
f 52//36 238//36 207//36
f 148//37 146//37 238//37
f 131//38 208//38 35//38
f 19//39 239//39 131//39
f 108//40 207//40 239//40
f 91//41 93//41 9//41
f 35//42 240//42 91//42
f 208//43 206//43 240//43
f 241//1 76//1 203//1
f 95//1 203//1 39//1
f 11//1 241//1 95//1
f 242//1 47//1 143//1
f 135//1 143//1 6//1
f 39//1 242//1 135//1
f 103//44 108//44 19//44
f 204//1 103//1 47//1
f 76//1 243//1 204//1
f 244//1 75//1 199//1
f 83//1 199//1 27//1
f 2//1 244//1 83//1
f 245//1 51//1 147//1
f 123//1 147//1 11//1
f 27//1 245//1 123//1
f 246//1 22//1 107//1
f 200//1 107//1 51//1
f 75//1 246//1 200//1
f 247//1 74//1 195//1
f 152//1 195//1 56//1
f 23//1 247//1 152//1
f 248//1 38//1 94//1
f 112//1 94//1 10//1
f 56//1 248//1 112//1
f 249//1 5//1 134//1
f 196//1 134//1 38//1
f 74//1 249//1 196//1
f 250//1 73//1 191//1
f 99//1 191//1 43//1
f 15//1 250//1 99//1
f 251//1 26//1 82//1
f 139//1 82//1 1//1
f 43//1 251//1 139//1
f 252//1 10//1 122//1
f 192//1 122//1 26//1
f 73//1 252//1 192//1
f 253//1 72//1 187//1
f 87//1 187//1 31//1
f 6//1 253//1 87//1
f 254//1 55//1 151//1
f 127//1 151//1 15//1
f 31//1 254//1 127//1
f 255//1 23//1 111//1
f 188//1 111//1 55//1
f 72//1 255//1 188//1
f 256//1 71//1 183//1
f 156//1 183//1 60//1
f 24//1 256//1 156//1
f 257//1 42//1 98//1
f 116//1 98//1 14//1
f 60//1 257//1 116//1
f 258//1 3//1 138//1
f 184//1 138//1 42//1
f 71//1 258//1 184//1
f 259//1 70//1 179//1
f 132//1 179//1 36//1
f 132//4 155//4 259//4
f 260//1 30//1 86//1
f 92//1 86//1 5//1
f 36//1 260//1 92//1
f 261//1 14//1 126//1
f 180//1 126//1 30//1
f 70//1 261//1 180//1
f 175//45 177//45 69//45
f 48//46 262//46 175//46
f 144//47 142//47 262//47
f 155//48 176//48 59//48
f 20//49 263//49 155//49
f 104//50 175//50 263//50
f 115//1 117//1 24//1
f 59//51 264//51 115//51
f 176//52 174//52 264//52
f 265//1 68//1 171//1
f 160//53 171//53 64//53
f 25//1 265//1 160//1
f 266//1 34//1 130//1
f 120//54 130//54 18//54
f 64//55 266//55 120//55
f 267//1 8//1 90//1
f 172//1 90//1 34//1
f 68//1 267//1 172//1
f 268//56 67//56 167//56
f 133//57 167//57 37//57
f 21//58 268//58 133//58
f 269//59 46//59 142//59
f 93//60 142//60 9//60
f 37//61 269//61 93//61
f 270//62 18//62 102//62
f 168//63 102//63 46//63
f 67//64 270//64 168//64
f 271//1 66//1 163//1
f 145//1 163//1 49//1
f 7//1 271//1 145//1
f 272//65 63//65 159//65
f 105//66 159//66 21//66
f 49//1 272//1 105//1
f 273//1 25//1 119//1
f 164//53 119//53 63//53
f 66//1 273//1 164//1
f 274//1 65//1 162//1
f 165//1 162//1 66//1
f 40//1 274//1 165//1
f 275//67 64//67 166//67
f 169//68 166//68 67//68
f 63//69 275//69 169//69
f 276//1 33//1 170//1
f 173//1 170//1 68//1
f 62//1 276//1 173//1
f 174//70 157//70 61//70
f 69//71 277//71 174//71
f 177//72 102//72 277//72
f 278//1 60//1 178//1
f 181//1 178//1 70//1
f 181//1 115//1 278//1
f 279//1 29//1 182//1
f 185//1 182//1 71//1
f 58//1 279//1 185//1
f 280//73 57//73 186//73
f 189//1 186//1 72//1
f 47//1 280//1 189//1
f 281//1 56//1 190//1
f 193//1 190//1 73//1
f 55//1 281//1 193//1
f 282//1 36//1 194//1
f 197//1 194//1 74//1
f 54//14 282//14 197//14
f 283//1 53//1 198//1
f 201//1 198//1 75//1
f 44//1 283//1 201//1
f 202//32 148//32 52//32
f 205//1 202//1 76//1
f 51//1 284//1 205//1
f 206//74 133//74 37//74
f 77//75 285//75 206//75
f 209//76 106//76 285//76
f 286//1 49//1 210//1
f 213//1 210//1 78//1
f 32//1 286//1 213//1
f 287//77 48//77 214//77
f 217//78 214//78 79//78
f 35//79 287//79 217//79
f 288//1 41//1 218//1
f 221//1 218//1 80//1
f 34//1 288//1 221//1
f 289//1 45//1 222//1
f 225//1 222//1 81//1
f 28//1 289//1 225//1
f 84//1 4//1 141//1
f 90//1 8//1 137//1
f 91//80 9//80 144//80
f 88//1 7//1 145//1
f 285//81 106//81 21//81
f 107//1 22//1 148//1
f 100//1 16//1 149//1
f 110//82 20//82 132//82
f 111//1 23//1 152//1
f 103//83 19//83 153//83
f 114//1 13//1 125//1
f 115//1 24//1 156//1
f 277//84 102//84 18//84
f 118//1 17//1 129//1
f 119//1 25//1 160//1
f 96//1 12//1 161//1
f 162//1 65//1 121//1
f 163//1 66//1 164//1
f 136//1 40//1 165//1
f 166//85 64//85 120//85
f 167//86 67//86 168//86
f 159//87 63//87 169//87
f 170//1 33//1 89//1
f 171//1 68//1 172//1
f 158//1 62//1 173//1
f 264//88 174//88 61//88
f 263//89 175//89 69//89
f 262//90 142//90 46//90
f 178//1 60//1 116//1
f 179//1 70//1 180//1
f 259//91 155//91 59//91
f 182//1 29//1 85//1
f 183//1 71//1 184//1
f 154//1 58//1 185//1
f 186//92 57//92 113//92
f 187//1 72//1 188//1
f 143//1 47//1 189//1
f 190//1 56//1 112//1
f 191//1 73//1 192//1
f 151//1 55//1 193//1
f 194//1 36//1 92//1
f 195//1 74//1 196//1
f 150//92 54//92 197//92
f 198//1 53//1 109//1
f 199//1 75//1 200//1
f 140//1 44//1 201//1
f 243//73 202//73 52//73
f 203//1 76//1 204//1
f 147//1 51//1 205//1
f 240//93 206//93 37//93
f 239//94 207//94 77//94
f 238//95 146//95 50//95
f 210//1 49//1 105//1
f 211//1 78//1 212//1
f 128//1 32//1 213//1
f 214//96 48//96 104//96
f 215//97 79//97 216//97
f 131//98 35//98 217//98
f 218//1 41//1 97//1
f 219//1 80//1 220//1
f 130//1 34//1 221//1
f 222//1 45//1 101//1
f 223//1 81//1 224//1
f 124//1 28//1 225//1
f 226//1 225//1 81//1
f 161//1 226//1 223//1
f 12//1 124//1 226//1
f 227//1 224//1 62//1
f 121//1 227//1 158//1
f 65//1 223//1 227//1
f 228//1 101//1 17//1
f 224//1 228//1 118//1
f 81//1 222//1 228//1
f 229//1 221//1 80//1
f 61//99 157//99 229//99
f 157//100 18//100 130//100
f 230//1 220//1 58//1
f 117//1 230//1 154//1
f 117//101 61//101 219//101
f 231//1 97//1 13//1
f 220//1 231//1 114//1
f 80//1 218//1 231//1
f 232//102 217//102 79//102
f 153//103 232//103 215//103
f 19//104 131//104 232//104
f 233//105 216//105 54//105
f 113//106 233//106 150//106
f 57//107 215//107 233//107
f 234//108 104//108 20//108
f 216//109 234//109 110//109
f 79//110 214//110 234//110
f 235//1 213//1 78//1
f 149//1 235//1 211//1
f 16//1 128//1 235//1
f 146//1 236//1 212//1
f 109//1 236//1 146//1
f 53//1 211//1 236//1
f 106//111 237//111 105//111
f 50//112 212//112 237//112
f 78//1 210//1 237//1
f 207//113 238//113 209//113
f 52//114 148//114 238//114
f 148//1 22//1 146//1
f 131//115 239//115 208//115
f 19//116 108//116 239//116
f 108//117 52//117 207//117
f 91//118 240//118 93//118
f 35//119 208//119 240//119
f 208//120 77//120 206//120
f 241//1 205//1 76//1
f 95//1 241//1 203//1
f 11//1 147//1 241//1
f 242//1 204//1 47//1
f 135//1 242//1 143//1
f 39//1 203//1 242//1
f 103//5 243//5 108//5
f 204//1 243//1 103//1
f 76//1 202//1 243//1
f 244//1 201//1 75//1
f 83//1 244//1 199//1
f 2//1 140//1 244//1
f 245//1 200//1 51//1
f 123//1 245//1 147//1
f 27//1 199//1 245//1
f 246//1 109//1 22//1
f 200//1 246//1 107//1
f 75//1 198//1 246//1
f 247//1 197//1 74//1
f 152//1 247//1 195//1
f 23//1 150//1 247//1
f 248//1 196//1 38//1
f 112//1 248//1 94//1
f 56//1 195//1 248//1
f 249//1 92//1 5//1
f 196//1 249//1 134//1
f 74//1 194//1 249//1
f 250//1 193//1 73//1
f 99//1 250//1 191//1
f 15//1 151//1 250//1
f 251//1 192//1 26//1
f 139//1 251//1 82//1
f 43//1 191//1 251//1
f 252//1 112//1 10//1
f 192//1 252//1 122//1
f 73//1 190//1 252//1
f 253//1 189//1 72//1
f 87//1 253//1 187//1
f 6//1 143//1 253//1
f 254//1 188//1 55//1
f 127//1 254//1 151//1
f 31//1 187//1 254//1
f 255//1 113//1 23//1
f 188//1 255//1 111//1
f 72//1 186//1 255//1
f 256//1 185//1 71//1
f 156//1 256//1 183//1
f 24//1 154//1 256//1
f 257//1 184//1 42//1
f 116//1 257//1 98//1
f 60//1 183//1 257//1
f 258//1 85//1 3//1
f 184//1 258//1 138//1
f 71//1 182//1 258//1
f 259//1 181//1 70//1
f 132//1 259//1 179//1
f 132//121 20//121 155//121
f 260//1 180//1 30//1
f 92//1 260//1 86//1
f 36//1 179//1 260//1
f 261//1 116//1 14//1
f 180//1 261//1 126//1
f 70//1 178//1 261//1
f 175//122 262//122 177//122
f 48//123 144//123 262//123
f 144//124 9//124 142//124
f 155//125 263//125 176//125
f 20//126 104//126 263//126
f 104//127 48//127 175//127
f 115//128 264//128 117//128
f 59//129 176//129 264//129
f 176//130 69//130 174//130
f 265//1 173//1 68//1
f 160//1 265//1 171//1
f 25//1 158//1 265//1
f 266//1 172//1 34//1
f 120//23 266//23 130//23
f 64//22 171//22 266//22
f 267//1 89//1 8//1
f 172//1 267//1 90//1
f 68//1 170//1 267//1
f 268//131 169//131 67//131
f 133//132 268//132 167//132
f 21//133 159//133 268//133
f 269//134 168//134 46//134
f 93//135 269//135 142//135
f 37//136 167//136 269//136
f 270//137 120//137 18//137
f 168//138 270//138 102//138
f 67//139 166//139 270//139
f 271//1 165//1 66//1
f 145//1 271//1 163//1
f 7//1 136//1 271//1
f 272//112 164//112 63//112
f 105//111 272//111 159//111
f 49//1 163//1 272//1
f 273//1 121//1 25//1
f 164//1 273//1 119//1
f 66//1 162//1 273//1
f 274//1 161//1 65//1
f 165//1 274//1 162//1
f 40//1 96//1 274//1
f 275//140 160//140 64//140
f 169//141 275//141 166//141
f 63//142 119//142 275//142
f 276//1 129//1 33//1
f 173//1 276//1 170//1
f 62//1 118//1 276//1
f 174//143 277//143 157//143
f 69//144 177//144 277//144
f 177//145 46//145 102//145
f 278//1 156//1 60//1
f 181//1 278//1 178//1
f 181//101 59//101 115//101
f 279//1 125//1 29//1
f 185//1 279//1 182//1
f 58//1 114//1 279//1
f 280//146 153//146 57//146
f 189//1 280//1 186//1
f 47//1 103//1 280//1
f 281//1 152//1 56//1
f 193//1 281//1 190//1
f 55//1 111//1 281//1
f 282//1 132//1 36//1
f 197//1 282//1 194//1
f 54//147 110//147 282//147
f 283//1 149//1 53//1
f 201//1 283//1 198//1
f 44//1 100//1 283//1
f 202//1 284//1 148//1
f 205//1 284//1 202//1
f 51//1 107//1 284//1
f 206//148 285//148 133//148
f 77//149 209//149 285//149
f 209//150 50//150 106//150
f 286//1 145//1 49//1
f 213//1 286//1 210//1
f 32//1 88//1 286//1
f 287//151 144//151 48//151
f 217//152 287//152 214//152
f 35//153 91//153 287//153
f 288//1 137//1 41//1
f 221//1 288//1 218//1
f 34//1 90//1 288//1
f 289//1 141//1 45//1
f 225//1 289//1 222//1
f 28//1 84//1 289//1
